<?xml version="1.0" standalone="no"?>
<!DOCTYPE svg PUBLIC "-//W3C//DTD SVG 20010904//EN"
 "http://www.w3.org/TR/2001/REC-SVG-20010904/DTD/svg10.dtd">
<svg version="1.0" xmlns="http://www.w3.org/2000/svg"
 width="256.000000pt" height="256.000000pt" viewBox="0 0 256.000000 256.000000"
 preserveAspectRatio="xMidYMid meet">
<metadata>
Created by potrace 1.16, written by Peter Selinger 2001-2019
</metadata>
<g transform="translate(0.000000,256.000000) scale(0.100000,-0.100000)"
fill="#000000" stroke="none">
<path d="M1045 2460 c-489 -100 -859 -478 -950 -969 -17 -96 -20 -309 -4 -397
18 -104 -4 -94 210 -94 172 0 190 2 195 18 15 51 61 126 94 152 73 58 89 60
476 60 l354 0 0 -35 0 -34 -357 -3 c-337 -3 -360 -4 -392 -23 -107 -63 -135
-204 -58 -292 55 -62 91 -73 260 -73 l147 0 0 -35 0 -35 -162 0 c-137 0 -170
3 -204 19 -77 35 -128 97 -158 194 -5 15 -22 17 -179 17 -96 0 -176 -3 -180
-6 -8 -9 35 -121 80 -207 328 -624 1130 -827 1726 -438 85 56 224 184 286 264
87 114 211 359 192 380 -4 4 -85 6 -180 5 l-173 -3 -18 -48 c-25 -66 -62 -112
-118 -144 l-47 -28 -372 -3 -373 -3 0 36 0 35 345 0 c289 0 352 3 383 15 144
61 163 250 34 340 -43 30 -44 30 -203 33 l-159 4 0 34 0 34 158 0 c143 0 161
-2 207 -24 80 -37 154 -127 155 -188 0 -17 16 -18 194 -18 l194 0 12 53 c19
80 24 294 11 386 -76 521 -449 917 -960 1021 -130 26 -337 26 -466 0z m135
-495 l0 -135 65 0 65 0 0 135 0 135 70 0 70 0 0 -135 0 -135 -35 0 -35 0 0
-65 0 -65 35 0 35 0 0 -135 0 -135 -70 0 -70 0 0 130 0 130 -65 0 -65 0 0
-130 0 -130 -70 0 -70 0 0 335 0 335 70 0 70 0 0 -135z m510 -1000 l0 -35
-410 0 -410 0 0 35 0 35 410 0 410 0 0 -35z"/>
</g>
</svg>
