<svg xmlns="http://www.w3.org/2000/svg" version="1.0" width="40" height="40" preserveAspectRatio="xMidYMid meet"><rect id="backgroundrect" width="100%" height="100%" x="0" y="0" fill="none" stroke="none"/>
<metadata>
Created by potrace 1.16, written by Peter Selinger 2001-2019
</metadata>

<g class="currentLayer" style=""><title>Layer 1</title><g transform="translate(0,256) scale(0.10000000149011612,-0.10000000149011612) " fill="#ffffff" stroke="none" id="svg_1" class="" fill-opacity="1">
<path d="M160.3730437329637,2514.7982353126827 c-67.83488911819549,-14.34368852018098 -119.161901334417,-68.56283112646504 -131.78557190651475,-138.9903417605537 c-2.358268128853422,-13.76994097937374 -2.774433092768732,-44.32199752735923 -0.5548866185537468,-56.944443425118486 c2.4969897834918586,-14.91743606098822 -0.5548866185537468,-13.483067208970118 29.13154747407168,-13.483067208970118 c23.860124597811094,0 26.35711438130296,0.28687377040361983 27.05072265449514,2.5818639336325773 c2.080824819576549,7.315281145292298 8.462020932944633,18.07304753542803 13.039835536013037,21.80240655067509 c10.126680788605873,8.319339341704968 12.346227262820856,8.606213112108588 66.03150760789582,8.606213112108588 l49.10746574200655,0 l0,-5.020290982063342 l0,-4.876854096861532 l-49.52363070592187,-0.4303106556054299 c-46.74919761315313,-0.4303106556054299 -49.93979566983717,-0.5737475408072389 -54.37888861826713,-3.2990483596416253 c-14.843217046312716,-9.036523767714016 -18.727423376188945,-29.26112458116919 -8.04585596902932,-41.883570478928455 c7.6296910051140125,-8.893086882512206 12.623670572097732,-10.470892619732114 36.06763020599351,-10.470892619732114 l20.39208323185018,0 l0,-5.020290982063342 l0,-5.020290982063342 l-22.472908051426725,0 c-19.00486668546581,0 -23.582681288534218,0.4303106556054299 -28.299217546241064,2.7253008188343872 c-10.681567407159616,5.020290982063342 -17.756371793719882,13.913377864575548 -21.91802143287298,27.826755729151095 c-0.6936082731921839,2.151553278027147 -3.0518764020456053,2.438427048430766 -24.831176180280142,2.438427048430766 c-13.317278845289914,0 -24.41501121636484,-0.4303106556054299 -24.969897834918584,-0.8606213112108589 c-1.1097732371074924,-1.2909319668162884 4.855257912345279,-17.35586310941898 11.097732371074928,-29.691435236774627 c45.500702721407194,-89.50461636592928 156.75546974143336,-118.62230406189667 239.43357590594155,-62.82535571839268 c11.791340644267109,8.032465571301348 31.0736506390098,26.392386877133003 39.67439322659287,37.867337693277776 c12.06878395354398,16.351804913006312 29.27026912871012,51.49384178744972 26.63455769057983,54.50601637668771 c-0.5548866185537468,0.5737475408072389 -11.791340644267109,0.8606213112108589 -24.969897834918584,0.7171844260090491 l-23.998846252449532,-0.4303106556054299 l-2.4969897834918586,-6.88497048968687 c-3.468041365960914,-9.466834423319444 -8.600742587583069,-16.064931142602696 -16.369155247335517,-20.65491146906061 l-6.519917768006518,-4.016232785650674 l-51.604455525498416,-0.4303106556054299 l-51.74317718013685,-0.4303106556054299 l0,5.163727867265153 l0,5.020290982063342 l47.858970850260626,0 c40.09055819050817,0 48.83002243272968,0.4303106556054299 53.130393726521206,2.151553278027147 c19.97591826793487,8.749649997310396 22.611629706065163,35.85922130045244 4.716536257706844,48.76854096861534 c-5.9650311494527735,4.303106556054294 -6.10375280409121,4.303106556054294 -28.160495891602622,4.733417211659722 l-22.05674308751142,0.5737475408072389 l0,4.876854096861532 l0,4.876854096861532 l21.91802143287298,0 c19.837196613296435,0 22.334186396788287,-0.28687377040361983 28.715382510156367,-3.442485244843435 c11.097732371074928,-5.307164752466962 21.36313481431923,-18.216484420629847 21.50185646895767,-26.966134417940236 c0,-2.438427048430766 2.219546474214986,-2.5818639336325773 26.912000999856698,-2.5818639336325773 l26.912000999856698,0 l1.66465985566124,7.602154915695918 c2.6357114381302953,11.474950816144782 3.3293197113224786,42.17044424933208 1.5259382010228024,55.36663768789859 c-10.542845752521181,74.7306171901429 -62.286022932658035,131.53162373005955 -133.1727884528991,146.44905979104777 c-18.033815102996755,3.729359015247055 -46.74919761315313,3.729359015247055 -64.64429106151144,0 zm18.727423376188945,-71.00125817489582 l0,-19.36397950224432 l9.016907551498377,0 l9.016907551498377,0 l0,19.36397950224432 l0,19.36397950224432 l9.710515824690559,0 l9.710515824690559,0 l0,-19.36397950224432 l0,-19.36397950224432 l-4.855257912345279,0 l-4.855257912345279,0 l0,-9.323397538117636 l0,-9.323397538117636 l4.855257912345279,0 l4.855257912345279,0 l0,-19.36397950224432 l0,-19.36397950224432 l-9.710515824690559,0 l-9.710515824690559,0 l0,18.64679507623527 l0,18.64679507623527 l-9.016907551498377,0 l-9.016907551498377,0 l0,-18.64679507623527 l0,-18.64679507623527 l-9.710515824690559,0 l-9.710515824690559,0 l0,48.05135654260627 l0,48.05135654260627 l9.710515824690559,0 l9.710515824690559,0 l0,-19.36397950224432 zm70.74804386560265,-143.43688520180976 l0,-5.020290982063342 l-56.87587840175902,0 l-56.87587840175902,0 l0,5.020290982063342 l0,5.020290982063342 l56.87587840175902,0 l56.87587840175902,0 l0,-5.020290982063342 z" id="svg_2" fill="#ffffff" fill-opacity="1"/>
</g></g></svg>